<?xml version="1.0" encoding="utf-8"?>
<!-- Generator: Adobe Illustrator 26.4.1, SVG Export Plug-In . SVG Version: 6.00 Build 0)  -->
<svg version="1.1" id="Capa_1" xmlns="http://www.w3.org/2000/svg" xmlns:xlink="http://www.w3.org/1999/xlink" x="0px" y="0px"
	 viewBox="0 0 595.28 224.41" style="enable-background:new 0 0 595.28 224.41;" xml:space="preserve">
<style type="text/css">
	.st0{fill:#B50B95;}
	.st1{fill:#000723;}
	.st2{fill:#01BDFD;}
	.st3{fill:#6D18FF;}
</style>
<g>
	<path class="st0" d="M123.05,104.84c-0.89,1.17-1.67,2.46-2.29,3.86C121.44,107.3,122.22,106.02,123.05,104.84z"/>
	<path class="st0" d="M137.43,93.84c0.66,0.08,1.32,0.19,2,0.31C139.43,94.15,138.7,93.98,137.43,93.84z"/>
	<g>
		<g>
			<g>
				<g>
					<polygon class="st1" points="427.06,85.17 378.9,85.17 378.9,95.36 397.89,95.36 397.89,139.22 408.08,139.22 408.08,95.36 
						427.06,95.36 					"/>
				</g>
				<g>
					<polygon class="st1" points="284.94,87.79 283.8,85.17 274.97,85.17 273.83,87.79 251.45,139.05 262.56,139.05 279.38,100.52 
						296.21,139.05 307.32,139.05 					"/>
				</g>
				<g>
					<polygon class="st1" points="234.18,136.43 233.04,139.05 224.21,139.05 223.07,136.43 200.69,85.17 211.8,85.17 228.63,123.7 
						245.45,85.17 256.56,85.17 					"/>
				</g>
				<g>
					<polygon class="st1" points="482.4,85.17 470.92,99.01 465.88,105.09 460.73,98.88 449.36,85.17 436.12,85.17 459.26,113.07 
						460.73,114.84 460.73,121.62 460.73,139.22 470.92,139.22 470.92,121.71 470.92,114.97 472.5,113.07 495.63,85.17 					"/>
				</g>
				<g>
					<polygon class="st1" points="357.65,85.17 357.65,122.58 328.75,85.17 318.56,85.17 318.56,139.22 328.75,139.22 
						328.75,102.07 357.65,139.05 357.65,139.22 367.83,139.22 367.83,85.17 					"/>
				</g>
			</g>
		</g>
		<g>
			<path class="st2" d="M133.92,93.3l-3.34,1.39c-4.08,1.83-8.3,5.83-10.8,9.52c-10.32,15.19-3.14,35.48,13.79,41.67
				c0.73,0.27,1.76,0.65,2.51,0.8c0.07,0.01,0.27,0.09,0.26-0.03c-6.98-3.03-12.61-9.05-15.17-16.22
				c-1.47-4.13-1.93-8.63-1.33-12.99c0.08,0.01,0.1,0.09,0.14,0.15c0.43,0.68,0.78,1.44,1.23,2.13
				c10.64,16.47,34.86,17.58,47.06,2.26c5.4-6.78,7.31-15.72,5.14-24.16l0.62,1.51c5.56,15.62,0.47,32.96-12.5,43.09
				c-15.62,12.21-38.21,10.4-51.67-4.12c-8.09-8.72-8.82-22.33-2.48-32.26C113.02,97.23,123.5,92.27,133.92,93.3z"/>
			<path class="st3" d="M141.61,131.08c0.02-0.11,0.13-0.11,0.2-0.14c2.7-1.15,4.86-1.83,7.22-3.7c4.83-3.83,8.51-8.61,10.32-14.57
				c4.53-14.93-4.29-30.24-18.95-34.7c-0.35-0.11-0.79-0.25-1.14-0.32c-0.07-0.01-0.21-0.08-0.19,0.03
				c7.76,3.3,13.82,10.29,15.98,18.46c0.92,3.51,1.14,7.21,0.65,10.81l-1.12-1.9c-9.66-15.44-31.37-18.06-44.62-5.59
				c-6.7,6.31-9.98,15.82-8.28,24.96c-0.09,0.02-0.08-0.11-0.11-0.18c-0.56-1.67-1.03-3.53-1.33-5.27
				C95.9,94.22,115.88,72.21,140.88,74c9.85,0.71,20.93,6.21,26.64,14.37c9.85,14.06,4.18,33.1-11.14,40.19
				C151.78,130.68,146.66,131.52,141.61,131.08z"/>
		</g>
	</g>
</g>
</svg>
